<?xml version="1.0" encoding="UTF-8" standalone="no"?>
<!DOCTYPE svg PUBLIC "-//W3C//DTD SVG 1.1//EN" "http://www.w3.org/Graphics/SVG/1.1/DTD/svg11.dtd">
<svg width="100%" height="100%" viewBox="0 0 3696 1216" version="1.1" xmlns="http://www.w3.org/2000/svg" xmlns:xlink="http://www.w3.org/1999/xlink" xml:space="preserve" xmlns:serif="http://www.serif.com/" style="fill-rule:evenodd;clip-rule:evenodd;stroke-linecap:round;stroke-linejoin:round;stroke-miterlimit:1.5;">
    <g id="Artboard1" transform="matrix(1.60869,0,0,1.01219,-193.043,-668.044)">
        <rect x="120" y="660" width="2297.32" height="1200.75" style="fill:none;"/>
        <g id="vert-lines" serif:id="vert lines" transform="matrix(0.621623,0,0,0.549564,53.1193,748.403)">
            <g transform="matrix(1.18842,0.0244112,0.0249159,1.0239,-306.952,-76.2605)">
                <path d="M372.744,1764.97L405.932,149.272" style="fill:none;"/>
                <g transform="matrix(0.841876,-0.0200714,-0.0368287,1.75662,350.726,-90.9866)">
                    <path d="M53.626,173.607L71.594,137.591L89.626,173.575L53.626,173.607Z" style="fill:rgb(117,117,117);"/>
                    <path d="M72.409,1057.38C72.409,1057.38 71.758,322.21 71.619,166.391" style="fill:none;stroke:rgb(117,117,117);stroke-width:8.33px;"/>
                </g>
            </g>
            <g transform="matrix(1.18842,0.0244112,0.0249159,1.0239,-126.954,-76.337)">
                <path d="M372.744,1764.97L405.932,149.272" style="fill:none;"/>
                <g transform="matrix(0.841876,-0.0200714,-0.0368287,1.75662,199.189,-87.2991)">
                    <path d="M233.624,173.564L251.592,137.548L269.624,173.532L233.624,173.564Z" style="fill:rgb(117,117,117);"/>
                    <path d="M252.408,1057.34C252.408,1057.34 251.756,322.167 251.618,166.348" style="fill:none;stroke:rgb(117,117,117);stroke-width:8.33px;"/>
                </g>
            </g>
            <g transform="matrix(1.18842,0.0244112,0.0249159,1.0239,53.0444,-76.4135)">
                <path d="M372.744,1764.97L405.932,149.272" style="fill:none;"/>
                <g transform="matrix(0.841876,-0.0200714,-0.0368287,1.75662,47.6511,-83.6115)">
                    <path d="M413.622,173.522L431.59,137.506L449.622,173.49L413.622,173.522Z" style="fill:rgb(117,117,117);"/>
                    <path d="M432.406,1057.29C432.406,1057.29 431.754,322.124 431.616,166.306" style="fill:none;stroke:rgb(117,117,117);stroke-width:8.33px;"/>
                </g>
            </g>
            <g transform="matrix(1.18842,0.0244112,0.0249159,1.0239,233.043,-76.49)">
                <path d="M372.744,1764.97L405.932,149.272" style="fill:none;"/>
                <g transform="matrix(0.841876,-0.0200714,-0.0368287,1.75662,-103.887,-79.924)">
                    <path d="M593.62,173.479L611.588,137.463L629.62,173.447L593.62,173.479Z" style="fill:rgb(117,117,117);"/>
                    <path d="M612.404,1057.25C612.404,1057.25 611.752,322.082 611.614,166.263" style="fill:none;stroke:rgb(117,117,117);stroke-width:8.33px;"/>
                </g>
            </g>
            <g transform="matrix(1.18842,0.0244112,0.0249159,1.0239,413.041,-76.5665)">
                <path d="M372.744,1764.97L405.932,149.272" style="fill:none;"/>
                <g transform="matrix(0.841876,-0.0200714,-0.0368287,1.75662,-255.424,-76.2364)">
                    <path d="M773.618,173.437L791.586,137.421L809.618,173.405L773.618,173.437Z" style="fill:rgb(117,117,117);"/>
                    <path d="M792.402,1057.21C792.402,1057.21 791.75,322.039 791.612,166.221" style="fill:none;stroke:rgb(117,117,117);stroke-width:8.33px;"/>
                </g>
            </g>
            <g transform="matrix(1.18842,0.0244112,0.0249159,1.0239,593.039,-76.643)">
                <path d="M372.744,1764.97L405.932,149.272" style="fill:none;"/>
                <g transform="matrix(0.841876,-0.0200714,-0.0368287,1.75662,-406.962,-72.5488)">
                    <path d="M953.617,173.394L971.585,137.378L989.617,173.362L953.617,173.394Z" style="fill:rgb(117,117,117);"/>
                    <path d="M972.4,1057.16C972.4,1057.16 971.748,321.997 971.61,166.178" style="fill:none;stroke:rgb(117,117,117);stroke-width:8.33px;"/>
                </g>
            </g>
            <g transform="matrix(1.18842,0.0244112,0.0249159,1.0239,773.037,-76.7194)">
                <path d="M372.744,1764.97L405.932,149.272" style="fill:none;"/>
                <g transform="matrix(0.841876,-0.0200714,-0.0368287,1.75662,-558.5,-68.8613)">
                    <path d="M1133.62,173.352L1151.58,137.336L1169.62,173.32L1133.62,173.352Z" style="fill:rgb(117,117,117);"/>
                    <path d="M1152.4,1057.12C1152.4,1057.12 1151.75,321.954 1151.61,166.136" style="fill:none;stroke:rgb(117,117,117);stroke-width:8.33px;"/>
                </g>
            </g>
            <g transform="matrix(1.18842,0.0244112,0.0249159,1.0239,953.035,-76.7959)">
                <path d="M372.744,1764.97L405.932,149.272" style="fill:none;"/>
                <g transform="matrix(0.841876,-0.0200714,-0.0368287,1.75662,-710.037,-65.1737)">
                    <path d="M1313.61,173.309L1331.58,137.293L1349.61,173.277L1313.61,173.309Z" style="fill:rgb(117,117,117);"/>
                    <path d="M1332.4,1057.08C1332.4,1057.08 1331.75,321.912 1331.61,166.093" style="fill:none;stroke:rgb(117,117,117);stroke-width:8.33px;"/>
                </g>
            </g>
            <g transform="matrix(1.18842,0.0244112,0.0249159,1.0239,1133.03,-76.8724)">
                <path d="M372.744,1764.97L405.932,149.272" style="fill:none;"/>
                <g transform="matrix(0.841876,-0.0200714,-0.0368287,1.75662,-861.575,-61.4862)">
                    <path d="M1493.61,173.267L1511.58,137.251L1529.61,173.235L1493.61,173.267Z" style="fill:rgb(117,117,117);"/>
                    <path d="M1512.39,1057.04C1512.39,1057.04 1511.74,321.869 1511.61,166.051" style="fill:none;stroke:rgb(117,117,117);stroke-width:8.33px;"/>
                </g>
            </g>
            <g transform="matrix(1.18842,0.0244112,0.0249159,1.0239,1313.03,-76.9489)">
                <path d="M372.744,1764.97L405.932,149.272" style="fill:none;"/>
                <g transform="matrix(0.841876,-0.0200714,-0.0368287,1.75662,-1013.11,-57.7986)">
                    <path d="M1673.61,173.224L1691.58,137.208L1709.61,173.192L1673.61,173.224Z" style="fill:rgb(117,117,117);"/>
                    <path d="M1692.39,1057C1692.39,1057 1691.74,321.827 1691.6,166.008" style="fill:none;stroke:rgb(117,117,117);stroke-width:8.33px;"/>
                </g>
            </g>
            <g transform="matrix(1.18842,0.0244112,0.0249159,1.0239,1493.03,-77.0254)">
                <path d="M372.744,1764.97L405.932,149.272" style="fill:none;"/>
                <g transform="matrix(0.841876,-0.0200714,-0.0368287,1.75662,-1164.65,-54.111)">
                    <path d="M1853.61,173.182L1871.58,137.166L1889.61,173.15L1853.61,173.182Z" style="fill:rgb(117,117,117);"/>
                    <path d="M1872.39,1056.95C1872.39,1056.95 1871.74,321.784 1871.6,165.966" style="fill:none;stroke:rgb(117,117,117);stroke-width:8.33px;"/>
                </g>
            </g>
            <g transform="matrix(1.18842,0.0244112,0.0249159,1.0239,1673.03,-77.1019)">
                <path d="M372.744,1764.97L405.932,149.272" style="fill:none;"/>
                <g transform="matrix(0.841876,-0.0200714,-0.0368287,1.75662,-1316.19,-50.4235)">
                    <path d="M2033.61,173.139L2051.57,137.123L2069.61,173.107L2033.61,173.139Z" style="fill:rgb(117,117,117);"/>
                    <path d="M2052.39,1056.91C2052.39,1056.91 2051.74,321.742 2051.6,165.923" style="fill:none;stroke:rgb(117,117,117);stroke-width:8.33px;"/>
                </g>
            </g>
            <g transform="matrix(1.18842,0.0244112,0.0249159,1.0239,1853.03,-77.1783)">
                <path d="M372.744,1764.97L405.932,149.272" style="fill:none;"/>
                <g transform="matrix(0.841876,-0.0200714,-0.0368287,1.75662,-1467.73,-46.7359)">
                    <path d="M2213.6,173.096L2231.57,137.08L2249.6,173.065L2213.6,173.096Z" style="fill:rgb(117,117,117);"/>
                    <path d="M2232.39,1056.87C2232.39,1056.87 2231.74,321.699 2231.6,165.88" style="fill:none;stroke:rgb(117,117,117);stroke-width:8.33px;"/>
                </g>
            </g>
            <g transform="matrix(1.18842,0.0244112,0.0249159,1.0239,2033.02,-77.2548)">
                <path d="M372.744,1764.97L405.932,149.272" style="fill:none;"/>
                <g transform="matrix(0.841876,-0.0200714,-0.0368287,1.75662,-1619.26,-43.0484)">
                    <path d="M2393.6,173.054L2411.57,137.038L2429.6,173.022L2393.6,173.054Z" style="fill:rgb(117,117,117);"/>
                    <path d="M2412.39,1056.83C2412.39,1056.83 2411.73,321.656 2411.6,165.838" style="fill:none;stroke:rgb(117,117,117);stroke-width:8.33px;"/>
                </g>
            </g>
        </g>
        <g id="input-text" serif:id="input text" transform="matrix(0.621623,0,0,0.987958,53.1193,14.0724)">
            <g transform="matrix(0.77577,0,0,0.77577,-63.4352,610.456)">
                <g transform="matrix(169.11,0,0,169.11,363.209,1578.08)">
                </g>
                <text x="269.158px" y="1578.08px" style="font-family:'ArialMT', 'Arial', sans-serif;font-size:169.11px;">_</text>
            </g>
            <g transform="matrix(0.77577,0,0,0.77577,119.565,610.456)">
                <g transform="matrix(169.11,0,0,169.11,353.713,1578.08)">
                </g>
                <text x="269.158px" y="1578.08px" style="font-family:'ArialMT', 'Arial', sans-serif;font-size:169.11px;">s</text>
            </g>
            <g transform="matrix(0.77577,0,0,0.77577,293.565,610.456)">
                <g transform="matrix(169.11,0,0,169.11,363.209,1578.08)">
                </g>
                <text x="269.158px" y="1578.08px" style="font-family:'ArialMT', 'Arial', sans-serif;font-size:169.11px;">p</text>
            </g>
            <g transform="matrix(0.77577,0,0,0.77577,476.565,610.456)">
                <g transform="matrix(169.11,0,0,169.11,363.209,1578.08)">
                </g>
                <text x="269.158px" y="1578.08px" style="font-family:'ArialMT', 'Arial', sans-serif;font-size:169.11px;">a</text>
            </g>
            <g transform="matrix(0.77577,0,0,0.77577,657.565,610.456)">
                <g transform="matrix(169.11,0,0,169.11,353.713,1578.08)">
                </g>
                <text x="269.158px" y="1578.08px" style="font-family:'ArialMT', 'Arial', sans-serif;font-size:169.11px;">c</text>
            </g>
            <g transform="matrix(0.77577,0,0,0.77577,836.565,610.456)">
                <g transform="matrix(169.11,0,0,169.11,363.209,1578.08)">
                </g>
                <text x="269.158px" y="1578.08px" style="font-family:'ArialMT', 'Arial', sans-serif;font-size:169.11px;">e</text>
            </g>
            <g transform="matrix(0.77577,0,0,0.77577,1016.56,610.456)">
                <g transform="matrix(169.11,0,0,169.11,363.209,1578.08)">
                </g>
                <text x="269.158px" y="1578.08px" style="font-family:'ArialMT', 'Arial', sans-serif;font-size:169.11px;">_</text>
            </g>
            <g transform="matrix(0.77577,0,0,0.77577,1216.56,610.456)">
                <g transform="matrix(169.11,0,0,169.11,306.729,1578.08)">
                </g>
                <text x="269.158px" y="1578.08px" style="font-family:'ArialMT', 'Arial', sans-serif;font-size:169.11px;">i</text>
            </g>
            <g transform="matrix(0.77577,0,0,0.77577,1379.56,610.456)">
                <g transform="matrix(169.11,0,0,169.11,353.713,1578.08)">
                </g>
                <text x="269.158px" y="1578.08px" style="font-family:'ArialMT', 'Arial', sans-serif;font-size:169.11px;">s</text>
            </g>
            <g transform="matrix(0.77577,0,0,0.77577,1555.56,610.456)">
                <g transform="matrix(169.11,0,0,169.11,363.209,1578.08)">
                </g>
                <text x="269.158px" y="1578.08px" style="font-family:'ArialMT', 'Arial', sans-serif;font-size:169.11px;">_</text>
            </g>
            <g transform="matrix(0.77577,0,0,0.77577,2273.72,609.704)">
                <g transform="matrix(169.11,0,0,169.11,363.209,1578.08)">
                </g>
                <text x="269.158px" y="1578.08px" style="font-family:'ArialMT', 'Arial', sans-serif;font-size:169.11px;">_</text>
            </g>
            <g transform="matrix(0.77577,0,0,0.77577,1735.56,610.456)">
                <g transform="matrix(169.11,0,0,169.11,363.209,1578.08)">
                </g>
                <text x="269.158px" y="1578.08px" style="font-family:'ArialMT', 'Arial', sans-serif;font-size:169.11px;">a</text>
            </g>
            <g transform="matrix(0.77577,0,0,0.77577,1935.56,610.456)">
                <g transform="matrix(169.11,0,0,169.11,306.729,1578.08)">
                </g>
                <text x="269.158px" y="1578.08px" style="font-family:'ArialMT', 'Arial', sans-serif;font-size:169.11px;">l</text>
            </g>
            <g transform="matrix(0.77577,0,0,0.77577,2116.56,610.456)">
                <g transform="matrix(169.11,0,0,169.11,306.729,1578.08)">
                </g>
                <text x="269.158px" y="1578.08px" style="font-family:'ArialMT', 'Arial', sans-serif;font-size:169.11px;">l</text>
            </g>
        </g>
        <g id="emb" transform="matrix(0.621623,0,0,0.987958,53.1193,-163.76)">
            <path d="M240,1770L240,1830C240,1846.56 226.557,1860 210,1860L150,1860C133.443,1860 120,1846.56 120,1830L120,1770C120,1753.44 133.443,1740 150,1740L210,1740C226.557,1740 240,1753.44 240,1770Z" style="fill:rgb(255,162,246);stroke:black;stroke-width:4.17px;"/>
            <g transform="matrix(1,0,0,1,180,0)">
                <path d="M240,1770L240,1830C240,1846.56 226.557,1860 210,1860L150,1860C133.443,1860 120,1846.56 120,1830L120,1770C120,1753.44 133.443,1740 150,1740L210,1740C226.557,1740 240,1753.44 240,1770Z" style="fill:rgb(255,162,246);stroke:black;stroke-width:4.17px;"/>
            </g>
            <g transform="matrix(1,0,0,1,360,0)">
                <path d="M240,1770L240,1830C240,1846.56 226.557,1860 210,1860L150,1860C133.443,1860 120,1846.56 120,1830L120,1770C120,1753.44 133.443,1740 150,1740L210,1740C226.557,1740 240,1753.44 240,1770Z" style="fill:rgb(255,162,246);stroke:black;stroke-width:4.17px;"/>
            </g>
            <g transform="matrix(1,0,0,1,540,0)">
                <path d="M240,1770L240,1830C240,1846.56 226.557,1860 210,1860L150,1860C133.443,1860 120,1846.56 120,1830L120,1770C120,1753.44 133.443,1740 150,1740L210,1740C226.557,1740 240,1753.44 240,1770Z" style="fill:rgb(255,162,246);stroke:black;stroke-width:4.17px;"/>
            </g>
            <g transform="matrix(1,0,0,1,720,0)">
                <path d="M240,1770L240,1830C240,1846.56 226.557,1860 210,1860L150,1860C133.443,1860 120,1846.56 120,1830L120,1770C120,1753.44 133.443,1740 150,1740L210,1740C226.557,1740 240,1753.44 240,1770Z" style="fill:rgb(255,162,246);stroke:black;stroke-width:4.17px;"/>
            </g>
            <g transform="matrix(1,0,0,1,900,0)">
                <path d="M240,1770L240,1830C240,1846.56 226.557,1860 210,1860L150,1860C133.443,1860 120,1846.56 120,1830L120,1770C120,1753.44 133.443,1740 150,1740L210,1740C226.557,1740 240,1753.44 240,1770Z" style="fill:rgb(255,162,246);stroke:black;stroke-width:4.17px;"/>
            </g>
            <g transform="matrix(1,0,0,1,1080,0)">
                <path d="M240,1770L240,1830C240,1846.56 226.557,1860 210,1860L150,1860C133.443,1860 120,1846.56 120,1830L120,1770C120,1753.44 133.443,1740 150,1740L210,1740C226.557,1740 240,1753.44 240,1770Z" style="fill:rgb(255,162,246);stroke:black;stroke-width:4.17px;"/>
            </g>
            <g transform="matrix(1,0,0,1,1260,0)">
                <path d="M240,1770L240,1830C240,1846.56 226.557,1860 210,1860L150,1860C133.443,1860 120,1846.56 120,1830L120,1770C120,1753.44 133.443,1740 150,1740L210,1740C226.557,1740 240,1753.44 240,1770Z" style="fill:rgb(255,162,246);stroke:black;stroke-width:4.17px;"/>
            </g>
            <g transform="matrix(1,0,0,1,1440,0)">
                <path d="M240,1770L240,1830C240,1846.56 226.557,1860 210,1860L150,1860C133.443,1860 120,1846.56 120,1830L120,1770C120,1753.44 133.443,1740 150,1740L210,1740C226.557,1740 240,1753.44 240,1770Z" style="fill:rgb(255,162,246);stroke:black;stroke-width:4.17px;"/>
            </g>
            <g transform="matrix(1,0,0,1,1620,0)">
                <path d="M240,1770L240,1830C240,1846.56 226.557,1860 210,1860L150,1860C133.443,1860 120,1846.56 120,1830L120,1770C120,1753.44 133.443,1740 150,1740L210,1740C226.557,1740 240,1753.44 240,1770Z" style="fill:rgb(255,162,246);stroke:black;stroke-width:4.17px;"/>
            </g>
            <g transform="matrix(1,0,0,1,1800,0)">
                <path d="M240,1770L240,1830C240,1846.56 226.557,1860 210,1860L150,1860C133.443,1860 120,1846.56 120,1830L120,1770C120,1753.44 133.443,1740 150,1740L210,1740C226.557,1740 240,1753.44 240,1770Z" style="fill:rgb(255,162,246);stroke:black;stroke-width:4.17px;"/>
            </g>
            <g transform="matrix(1,0,0,1,1980,0)">
                <path d="M240,1770L240,1830C240,1846.56 226.557,1860 210,1860L150,1860C133.443,1860 120,1846.56 120,1830L120,1770C120,1753.44 133.443,1740 150,1740L210,1740C226.557,1740 240,1753.44 240,1770Z" style="fill:rgb(255,162,246);stroke:black;stroke-width:4.17px;"/>
            </g>
            <g transform="matrix(1,0,0,1,2160,0)">
                <path d="M240,1770L240,1830C240,1846.56 226.557,1860 210,1860L150,1860C133.443,1860 120,1846.56 120,1830L120,1770C120,1753.44 133.443,1740 150,1740L210,1740C226.557,1740 240,1753.44 240,1770Z" style="fill:rgb(255,162,246);stroke:black;stroke-width:4.17px;"/>
            </g>
            <g transform="matrix(1,0,0,1,2340,0)">
                <path d="M240,1770L240,1830C240,1846.56 226.557,1860 210,1860L150,1860C133.443,1860 120,1846.56 120,1830L120,1770C120,1753.44 133.443,1740 150,1740L210,1740C226.557,1740 240,1753.44 240,1770Z" style="fill:rgb(255,162,246);stroke:black;stroke-width:4.17px;"/>
            </g>
        </g>
        <g id="local-1" serif:id="local 1" transform="matrix(0.621623,0,0,0.987958,53.1193,-341.593)">
            <path d="M240,1770L240,1830C240,1846.56 226.557,1860 210,1860L150,1860C133.443,1860 120,1846.56 120,1830L120,1770C120,1753.44 133.443,1740 150,1740L210,1740C226.557,1740 240,1753.44 240,1770Z" style="fill:rgb(255,165,162);stroke:black;stroke-width:4.17px;"/>
            <g transform="matrix(1,0,0,1,180,0)">
                <path d="M240,1770L240,1830C240,1846.56 226.557,1860 210,1860L150,1860C133.443,1860 120,1846.56 120,1830L120,1770C120,1753.44 133.443,1740 150,1740L210,1740C226.557,1740 240,1753.44 240,1770Z" style="fill:rgb(255,165,162);stroke:black;stroke-width:4.17px;"/>
            </g>
            <g transform="matrix(1,0,0,1,360,0)">
                <path d="M240,1770L240,1830C240,1846.56 226.557,1860 210,1860L150,1860C133.443,1860 120,1846.56 120,1830L120,1770C120,1753.44 133.443,1740 150,1740L210,1740C226.557,1740 240,1753.44 240,1770Z" style="fill:rgb(255,165,162);stroke:black;stroke-width:4.17px;"/>
            </g>
            <g transform="matrix(1,0,0,1,540,0)">
                <path d="M240,1770L240,1830C240,1846.56 226.557,1860 210,1860L150,1860C133.443,1860 120,1846.56 120,1830L120,1770C120,1753.44 133.443,1740 150,1740L210,1740C226.557,1740 240,1753.44 240,1770Z" style="fill:rgb(255,165,162);stroke:black;stroke-width:4.17px;"/>
            </g>
            <g transform="matrix(1,0,0,1,720,0)">
                <path d="M240,1770L240,1830C240,1846.56 226.557,1860 210,1860L150,1860C133.443,1860 120,1846.56 120,1830L120,1770C120,1753.44 133.443,1740 150,1740L210,1740C226.557,1740 240,1753.44 240,1770Z" style="fill:rgb(255,165,162);stroke:black;stroke-width:4.17px;"/>
            </g>
            <g transform="matrix(1,0,0,1,900,0)">
                <path d="M240,1770L240,1830C240,1846.56 226.557,1860 210,1860L150,1860C133.443,1860 120,1846.56 120,1830L120,1770C120,1753.44 133.443,1740 150,1740L210,1740C226.557,1740 240,1753.44 240,1770Z" style="fill:rgb(255,165,162);stroke:black;stroke-width:4.17px;"/>
            </g>
            <g transform="matrix(1,0,0,1,1080,0)">
                <path d="M240,1770L240,1830C240,1846.56 226.557,1860 210,1860L150,1860C133.443,1860 120,1846.56 120,1830L120,1770C120,1753.44 133.443,1740 150,1740L210,1740C226.557,1740 240,1753.44 240,1770Z" style="fill:rgb(255,165,162);stroke:black;stroke-width:4.17px;"/>
            </g>
            <g transform="matrix(1,0,0,1,1260,0)">
                <path d="M240,1770L240,1830C240,1846.56 226.557,1860 210,1860L150,1860C133.443,1860 120,1846.56 120,1830L120,1770C120,1753.44 133.443,1740 150,1740L210,1740C226.557,1740 240,1753.44 240,1770Z" style="fill:rgb(255,165,162);stroke:black;stroke-width:4.17px;"/>
            </g>
            <g transform="matrix(1,0,0,1,1440,0)">
                <path d="M240,1770L240,1830C240,1846.56 226.557,1860 210,1860L150,1860C133.443,1860 120,1846.56 120,1830L120,1770C120,1753.44 133.443,1740 150,1740L210,1740C226.557,1740 240,1753.44 240,1770Z" style="fill:rgb(255,165,162);stroke:black;stroke-width:4.17px;"/>
            </g>
            <g transform="matrix(1,0,0,1,1620,0)">
                <path d="M240,1770L240,1830C240,1846.56 226.557,1860 210,1860L150,1860C133.443,1860 120,1846.56 120,1830L120,1770C120,1753.44 133.443,1740 150,1740L210,1740C226.557,1740 240,1753.44 240,1770Z" style="fill:rgb(255,165,162);stroke:black;stroke-width:4.17px;"/>
            </g>
            <g transform="matrix(1,0,0,1,1800,0)">
                <path d="M240,1770L240,1830C240,1846.56 226.557,1860 210,1860L150,1860C133.443,1860 120,1846.56 120,1830L120,1770C120,1753.44 133.443,1740 150,1740L210,1740C226.557,1740 240,1753.44 240,1770Z" style="fill:rgb(255,165,162);stroke:black;stroke-width:4.17px;"/>
            </g>
            <g transform="matrix(1,0,0,1,1980,0)">
                <path d="M240,1770L240,1830C240,1846.56 226.557,1860 210,1860L150,1860C133.443,1860 120,1846.56 120,1830L120,1770C120,1753.44 133.443,1740 150,1740L210,1740C226.557,1740 240,1753.44 240,1770Z" style="fill:rgb(255,165,162);stroke:black;stroke-width:4.17px;"/>
            </g>
            <g transform="matrix(1,0,0,1,2160,0)">
                <path d="M240,1770L240,1830C240,1846.56 226.557,1860 210,1860L150,1860C133.443,1860 120,1846.56 120,1830L120,1770C120,1753.44 133.443,1740 150,1740L210,1740C226.557,1740 240,1753.44 240,1770Z" style="fill:rgb(255,165,162);stroke:black;stroke-width:4.17px;"/>
            </g>
            <g transform="matrix(1,0,0,1,2340,0)">
                <path d="M240,1770L240,1830C240,1846.56 226.557,1860 210,1860L150,1860C133.443,1860 120,1846.56 120,1830L120,1770C120,1753.44 133.443,1740 150,1740L210,1740C226.557,1740 240,1753.44 240,1770Z" style="fill:rgb(255,165,162);stroke:black;stroke-width:4.17px;"/>
            </g>
        </g>
        <g id="global" transform="matrix(0.621623,0,0,0.987958,53.1193,-519.425)">
            <path d="M240,1770L240,1830C240,1846.56 226.557,1860 210,1860L150,1860C133.443,1860 120,1846.56 120,1830L120,1770C120,1753.44 133.443,1740 150,1740L210,1740C226.557,1740 240,1753.44 240,1770Z" style="fill:rgb(177,255,162);stroke:black;stroke-width:4.17px;"/>
            <g transform="matrix(1,0,0,1,1080,0)">
                <path d="M240,1770L240,1830C240,1846.56 226.557,1860 210,1860L150,1860C133.443,1860 120,1846.56 120,1830L120,1770C120,1753.44 133.443,1740 150,1740L210,1740C226.557,1740 240,1753.44 240,1770Z" style="fill:rgb(177,255,162);stroke:black;stroke-width:4.17px;"/>
            </g>
            <g transform="matrix(1,0,0,1,1620,0)">
                <path d="M240,1770L240,1830C240,1846.56 226.557,1860 210,1860L150,1860C133.443,1860 120,1846.56 120,1830L120,1770C120,1753.44 133.443,1740 150,1740L210,1740C226.557,1740 240,1753.44 240,1770Z" style="fill:rgb(177,255,162);stroke:black;stroke-width:4.17px;"/>
            </g>
            <g transform="matrix(1,0,0,1,2340,0)">
                <path d="M240,1770L240,1830C240,1846.56 226.557,1860 210,1860L150,1860C133.443,1860 120,1846.56 120,1830L120,1770C120,1753.44 133.443,1740 150,1740L210,1740C226.557,1740 240,1753.44 240,1770Z" style="fill:rgb(177,255,162);stroke:black;stroke-width:4.17px;"/>
            </g>
        </g>
        <g id="local-2" serif:id="local 2" transform="matrix(0.621623,0,0,0.987958,53.7409,-697.258)">
            <path d="M240,1770L240,1830C240,1846.56 226.557,1860 210,1860L150,1860C133.443,1860 120,1846.56 120,1830L120,1770C120,1753.44 133.443,1740 150,1740L210,1740C226.557,1740 240,1753.44 240,1770Z" style="fill:rgb(162,254,255);stroke:black;stroke-width:4.17px;"/>
            <g transform="matrix(1,0,0,1,180,0)">
                <path d="M240,1770L240,1830C240,1846.56 226.557,1860 210,1860L150,1860C133.443,1860 120,1846.56 120,1830L120,1770C120,1753.44 133.443,1740 150,1740L210,1740C226.557,1740 240,1753.44 240,1770Z" style="fill:rgb(162,254,255);stroke:black;stroke-width:4.17px;"/>
            </g>
            <g transform="matrix(1,0,0,1,360,0)">
                <path d="M240,1770L240,1830C240,1846.56 226.557,1860 210,1860L150,1860C133.443,1860 120,1846.56 120,1830L120,1770C120,1753.44 133.443,1740 150,1740L210,1740C226.557,1740 240,1753.44 240,1770Z" style="fill:rgb(162,254,255);stroke:black;stroke-width:4.17px;"/>
            </g>
            <g transform="matrix(1,0,0,1,540,0)">
                <path d="M240,1770L240,1830C240,1846.56 226.557,1860 210,1860L150,1860C133.443,1860 120,1846.56 120,1830L120,1770C120,1753.44 133.443,1740 150,1740L210,1740C226.557,1740 240,1753.44 240,1770Z" style="fill:rgb(162,254,255);stroke:black;stroke-width:4.17px;"/>
            </g>
            <g transform="matrix(1,0,0,1,720,0)">
                <path d="M240,1770L240,1830C240,1846.56 226.557,1860 210,1860L150,1860C133.443,1860 120,1846.56 120,1830L120,1770C120,1753.44 133.443,1740 150,1740L210,1740C226.557,1740 240,1753.44 240,1770Z" style="fill:rgb(162,254,255);stroke:black;stroke-width:4.17px;"/>
            </g>
            <g transform="matrix(1,0,0,1,900,0)">
                <path d="M240,1770L240,1830C240,1846.56 226.557,1860 210,1860L150,1860C133.443,1860 120,1846.56 120,1830L120,1770C120,1753.44 133.443,1740 150,1740L210,1740C226.557,1740 240,1753.44 240,1770Z" style="fill:rgb(162,254,255);stroke:black;stroke-width:4.17px;"/>
            </g>
            <g transform="matrix(1,0,0,1,1080,0)">
                <path d="M240,1770L240,1830C240,1846.56 226.557,1860 210,1860L150,1860C133.443,1860 120,1846.56 120,1830L120,1770C120,1753.44 133.443,1740 150,1740L210,1740C226.557,1740 240,1753.44 240,1770Z" style="fill:rgb(162,254,255);stroke:black;stroke-width:4.17px;"/>
            </g>
            <g transform="matrix(1,0,0,1,1260,0)">
                <path d="M240,1770L240,1830C240,1846.56 226.557,1860 210,1860L150,1860C133.443,1860 120,1846.56 120,1830L120,1770C120,1753.44 133.443,1740 150,1740L210,1740C226.557,1740 240,1753.44 240,1770Z" style="fill:rgb(162,254,255);stroke:black;stroke-width:4.17px;"/>
            </g>
            <g transform="matrix(1,0,0,1,1440,0)">
                <path d="M240,1770L240,1830C240,1846.56 226.557,1860 210,1860L150,1860C133.443,1860 120,1846.56 120,1830L120,1770C120,1753.44 133.443,1740 150,1740L210,1740C226.557,1740 240,1753.44 240,1770Z" style="fill:rgb(162,254,255);stroke:black;stroke-width:4.17px;"/>
            </g>
            <g transform="matrix(1,0,0,1,1620,0)">
                <path d="M240,1770L240,1830C240,1846.56 226.557,1860 210,1860L150,1860C133.443,1860 120,1846.56 120,1830L120,1770C120,1753.44 133.443,1740 150,1740L210,1740C226.557,1740 240,1753.44 240,1770Z" style="fill:rgb(162,254,255);stroke:black;stroke-width:4.17px;"/>
            </g>
            <g transform="matrix(1,0,0,1,1800,0)">
                <path d="M240,1770L240,1830C240,1846.56 226.557,1860 210,1860L150,1860C133.443,1860 120,1846.56 120,1830L120,1770C120,1753.44 133.443,1740 150,1740L210,1740C226.557,1740 240,1753.44 240,1770Z" style="fill:rgb(162,254,255);stroke:black;stroke-width:4.17px;"/>
            </g>
            <g transform="matrix(1,0,0,1,1980,0)">
                <path d="M240,1770L240,1830C240,1846.56 226.557,1860 210,1860L150,1860C133.443,1860 120,1846.56 120,1830L120,1770C120,1753.44 133.443,1740 150,1740L210,1740C226.557,1740 240,1753.44 240,1770Z" style="fill:rgb(162,254,255);stroke:black;stroke-width:4.17px;"/>
            </g>
            <g transform="matrix(1,0,0,1,2160,0)">
                <path d="M240,1770L240,1830C240,1846.56 226.557,1860 210,1860L150,1860C133.443,1860 120,1846.56 120,1830L120,1770C120,1753.44 133.443,1740 150,1740L210,1740C226.557,1740 240,1753.44 240,1770Z" style="fill:rgb(162,254,255);stroke:black;stroke-width:4.17px;"/>
            </g>
            <g transform="matrix(1,0,0,1,2339,0)">
                <path d="M240,1770L240,1830C240,1846.56 226.557,1860 210,1860L150,1860C133.443,1860 120,1846.56 120,1830L120,1770C120,1753.44 133.443,1740 150,1740L210,1740C226.557,1740 240,1753.44 240,1770Z" style="fill:rgb(162,254,255);stroke:black;stroke-width:4.17px;"/>
            </g>
        </g>
        <g id="logits" transform="matrix(0.621623,0,0,0.987958,53.1193,-875.09)">
            <path d="M240,1770L240,1830C240,1846.56 226.557,1860 210,1860L150,1860C133.443,1860 120,1846.56 120,1830L120,1770C120,1753.44 133.443,1740 150,1740L210,1740C226.557,1740 240,1753.44 240,1770Z" style="fill:rgb(162,169,255);stroke:black;stroke-width:4.17px;"/>
            <g transform="matrix(1,0,0,1,180,0)">
                <path d="M240,1770L240,1830C240,1846.56 226.557,1860 210,1860L150,1860C133.443,1860 120,1846.56 120,1830L120,1770C120,1753.44 133.443,1740 150,1740L210,1740C226.557,1740 240,1753.44 240,1770Z" style="fill:rgb(162,169,255);stroke:black;stroke-width:4.17px;"/>
            </g>
            <g transform="matrix(1,0,0,1,360,0)">
                <path d="M240,1770L240,1830C240,1846.56 226.557,1860 210,1860L150,1860C133.443,1860 120,1846.56 120,1830L120,1770C120,1753.44 133.443,1740 150,1740L210,1740C226.557,1740 240,1753.44 240,1770Z" style="fill:rgb(162,169,255);stroke:black;stroke-width:4.17px;"/>
            </g>
            <g transform="matrix(1,0,0,1,540,0)">
                <path d="M240,1770L240,1830C240,1846.56 226.557,1860 210,1860L150,1860C133.443,1860 120,1846.56 120,1830L120,1770C120,1753.44 133.443,1740 150,1740L210,1740C226.557,1740 240,1753.44 240,1770Z" style="fill:rgb(162,169,255);stroke:black;stroke-width:4.17px;"/>
            </g>
            <g transform="matrix(1,0,0,1,720,0)">
                <path d="M240,1770L240,1830C240,1846.56 226.557,1860 210,1860L150,1860C133.443,1860 120,1846.56 120,1830L120,1770C120,1753.44 133.443,1740 150,1740L210,1740C226.557,1740 240,1753.44 240,1770Z" style="fill:rgb(162,169,255);stroke:black;stroke-width:4.17px;"/>
            </g>
            <g transform="matrix(1,0,0,1,900,0)">
                <path d="M240,1770L240,1830C240,1846.56 226.557,1860 210,1860L150,1860C133.443,1860 120,1846.56 120,1830L120,1770C120,1753.44 133.443,1740 150,1740L210,1740C226.557,1740 240,1753.44 240,1770Z" style="fill:rgb(162,169,255);stroke:black;stroke-width:4.17px;"/>
            </g>
            <g transform="matrix(1,0,0,1,1080,0)">
                <path d="M240,1770L240,1830C240,1846.56 226.557,1860 210,1860L150,1860C133.443,1860 120,1846.56 120,1830L120,1770C120,1753.44 133.443,1740 150,1740L210,1740C226.557,1740 240,1753.44 240,1770Z" style="fill:rgb(162,169,255);stroke:black;stroke-width:4.17px;"/>
            </g>
            <g transform="matrix(1,0,0,1,1260,0)">
                <path d="M240,1770L240,1830C240,1846.56 226.557,1860 210,1860L150,1860C133.443,1860 120,1846.56 120,1830L120,1770C120,1753.44 133.443,1740 150,1740L210,1740C226.557,1740 240,1753.44 240,1770Z" style="fill:rgb(162,169,255);stroke:black;stroke-width:4.17px;"/>
            </g>
            <g transform="matrix(1,0,0,1,1440,0)">
                <path d="M240,1770L240,1830C240,1846.56 226.557,1860 210,1860L150,1860C133.443,1860 120,1846.56 120,1830L120,1770C120,1753.44 133.443,1740 150,1740L210,1740C226.557,1740 240,1753.44 240,1770Z" style="fill:rgb(162,169,255);stroke:black;stroke-width:4.17px;"/>
            </g>
            <g transform="matrix(1,0,0,1,1620,0)">
                <path d="M240,1770L240,1830C240,1846.56 226.557,1860 210,1860L150,1860C133.443,1860 120,1846.56 120,1830L120,1770C120,1753.44 133.443,1740 150,1740L210,1740C226.557,1740 240,1753.44 240,1770Z" style="fill:rgb(162,169,255);stroke:black;stroke-width:4.17px;"/>
            </g>
            <g transform="matrix(1,0,0,1,1800,0)">
                <path d="M240,1770L240,1830C240,1846.56 226.557,1860 210,1860L150,1860C133.443,1860 120,1846.56 120,1830L120,1770C120,1753.44 133.443,1740 150,1740L210,1740C226.557,1740 240,1753.44 240,1770Z" style="fill:rgb(162,169,255);stroke:black;stroke-width:4.17px;"/>
            </g>
            <g transform="matrix(1,0,0,1,1980,0)">
                <path d="M240,1770L240,1830C240,1846.56 226.557,1860 210,1860L150,1860C133.443,1860 120,1846.56 120,1830L120,1770C120,1753.44 133.443,1740 150,1740L210,1740C226.557,1740 240,1753.44 240,1770Z" style="fill:rgb(162,169,255);stroke:black;stroke-width:4.17px;"/>
            </g>
            <g transform="matrix(1,0,0,1,2160,0)">
                <path d="M240,1770L240,1830C240,1846.56 226.557,1860 210,1860L150,1860C133.443,1860 120,1846.56 120,1830L120,1770C120,1753.44 133.443,1740 150,1740L210,1740C226.557,1740 240,1753.44 240,1770Z" style="fill:rgb(162,169,255);stroke:black;stroke-width:4.17px;"/>
            </g>
            <g transform="matrix(1,0,0,1,2340,0)">
                <path d="M240,1770L240,1830C240,1846.56 226.557,1860 210,1860L150,1860C133.443,1860 120,1846.56 120,1830L120,1770C120,1753.44 133.443,1740 150,1740L210,1740C226.557,1740 240,1753.44 240,1770Z" style="fill:rgb(162,169,255);stroke:black;stroke-width:4.17px;"/>
            </g>
        </g>
        <g id="output-text" serif:id="output text" transform="matrix(0.621623,0,0,0.987958,53.1193,14.0724)">
            <g transform="matrix(0.77577,0,0,0.77577,2095.39,-470.316)">
                <g transform="matrix(169.11,0,0,169.11,363.209,1578.08)">
                </g>
                <text x="269.158px" y="1578.08px" style="font-family:'ArialMT', 'Arial', sans-serif;font-size:169.11px;">_</text>
            </g>
            <g transform="matrix(0.77577,0,0,0.77577,2277.68,-470.316)">
                <g transform="matrix(169.11,0,0,169.11,353.713,1578.08)">
                </g>
                <text x="269.158px" y="1578.08px" style="font-family:'ArialMT', 'Arial', sans-serif;font-size:169.11px;">y</text>
            </g>
            <g transform="matrix(0.77577,0,0,0.77577,-60.7268,-470.316)">
                <g transform="matrix(169.11,0,0,169.11,353.713,1578.08)">
                </g>
                <text x="269.158px" y="1578.08px" style="font-family:'ArialMT', 'Arial', sans-serif;font-size:169.11px;">s</text>
            </g>
            <g transform="matrix(0.77577,0,0,0.77577,114.273,-470.316)">
                <g transform="matrix(169.11,0,0,169.11,363.209,1578.08)">
                </g>
                <text x="269.158px" y="1578.08px" style="font-family:'ArialMT', 'Arial', sans-serif;font-size:169.11px;">p</text>
            </g>
            <g transform="matrix(0.77577,0,0,0.77577,295.273,-470.316)">
                <g transform="matrix(169.11,0,0,169.11,363.209,1578.08)">
                </g>
                <text x="269.158px" y="1578.08px" style="font-family:'ArialMT', 'Arial', sans-serif;font-size:169.11px;">a</text>
            </g>
            <g transform="matrix(0.77577,0,0,0.77577,476.273,-470.316)">
                <g transform="matrix(169.11,0,0,169.11,353.713,1578.08)">
                </g>
                <text x="269.158px" y="1578.08px" style="font-family:'ArialMT', 'Arial', sans-serif;font-size:169.11px;">c</text>
            </g>
            <g transform="matrix(0.77577,0,0,0.77577,654.273,-470.316)">
                <g transform="matrix(169.11,0,0,169.11,363.209,1578.08)">
                </g>
                <text x="269.158px" y="1578.08px" style="font-family:'ArialMT', 'Arial', sans-serif;font-size:169.11px;">e</text>
            </g>
            <g transform="matrix(0.77577,0,0,0.77577,834.273,-470.316)">
                <g transform="matrix(169.11,0,0,169.11,363.209,1578.08)">
                </g>
                <text x="269.158px" y="1578.08px" style="font-family:'ArialMT', 'Arial', sans-serif;font-size:169.11px;">_</text>
            </g>
            <g transform="matrix(0.77577,0,0,0.77577,1036.27,-470.316)">
                <g transform="matrix(169.11,0,0,169.11,306.729,1578.08)">
                </g>
                <text x="269.158px" y="1578.08px" style="font-family:'ArialMT', 'Arial', sans-serif;font-size:169.11px;">i</text>
            </g>
            <g transform="matrix(0.77577,0,0,0.77577,1198.27,-470.316)">
                <g transform="matrix(169.11,0,0,169.11,353.713,1578.08)">
                </g>
                <text x="269.158px" y="1578.08px" style="font-family:'ArialMT', 'Arial', sans-serif;font-size:169.11px;">s</text>
            </g>
            <g transform="matrix(0.77577,0,0,0.77577,1374.27,-470.316)">
                <g transform="matrix(169.11,0,0,169.11,363.209,1578.08)">
                </g>
                <text x="269.158px" y="1578.08px" style="font-family:'ArialMT', 'Arial', sans-serif;font-size:169.11px;">_</text>
            </g>
            <g transform="matrix(0.77577,0,0,0.77577,1554.27,-470.316)">
                <g transform="matrix(169.11,0,0,169.11,363.209,1578.08)">
                </g>
                <text x="269.158px" y="1578.08px" style="font-family:'ArialMT', 'Arial', sans-serif;font-size:169.11px;">a</text>
            </g>
            <g transform="matrix(0.77577,0,0,0.77577,1757.27,-470.316)">
                <g transform="matrix(169.11,0,0,169.11,306.729,1578.08)">
                </g>
                <text x="269.158px" y="1578.08px" style="font-family:'ArialMT', 'Arial', sans-serif;font-size:169.11px;">l</text>
            </g>
            <g transform="matrix(0.77577,0,0,0.77577,1937.27,-470.316)">
                <g transform="matrix(169.11,0,0,169.11,306.729,1578.08)">
                </g>
                <text x="269.158px" y="1578.08px" style="font-family:'ArialMT', 'Arial', sans-serif;font-size:169.11px;">l</text>
            </g>
        </g>
        <g id="labels" transform="matrix(0.884741,0,0,0.987958,31.4909,14.0724)">
            <g transform="matrix(0.338156,0,0,0.481289,1072.21,1188.56)">
                <g transform="matrix(169.11,0,0,169.11,3200.66,953.542)">
                </g>
                <text x="2363.86px" y="953.542px" style="font-family:'ArialMT', 'Arial', sans-serif;font-size:169.11px;">embedding</text>
            </g>
            <g id="local">
                <g transform="matrix(0.20348,0,0,0.289609,1422.65,1207.35)">
                    <g transform="matrix(169.11,0,0,169.11,2711.66,953.542)">
                    </g>
                    <text x="2363.86px" y="953.542px" style="font-family:'ArialMT', 'Arial', sans-serif;font-size:169.11px;">local</text>
                </g>
                <g transform="matrix(0.20348,0,0,0.289609,1421.99,1151.53)">
                    <g transform="matrix(169.11,0,0,169.11,2570.54,953.542)">
                    </g>
                    <text x="2363.86px" y="953.542px" style="font-family:'ArialMT', 'Arial', sans-serif;font-size:169.11px;">(1)</text>
                </g>
                <g transform="matrix(0.338156,0,0,0.481289,1072.21,1010.83)">
                    <text x="2363.86px" y="953.542px" style="font-family:'Arial-ItalicMT', 'Arial', sans-serif;font-style:italic;font-size:169.11px;">L</text>
                    <text x="2736.76px" y="953.542px" style="font-family:'AppleSymbols', 'Apple Symbols';font-size:169.11px;">⨉</text>
                    <g transform="matrix(169.11,0,0,169.11,4676.95,953.542)">
                    </g>
                    <text x="2896.38px" y="953.542px" style="font-family:'ArialMT', 'Arial', sans-serif;font-size:169.11px;">local transformer<tspan x="4150.63px " y="953.542px "> </tspan>blocks</text>
                </g>
            </g>
            <g id="local1" serif:id="local" transform="matrix(1,0,0,1,1.42109e-14,-360)">
                <g transform="matrix(0.20348,0,0,0.289609,1422.65,1207.35)">
                    <g transform="matrix(169.11,0,0,169.11,2711.66,953.542)">
                    </g>
                    <text x="2363.86px" y="953.542px" style="font-family:'ArialMT', 'Arial', sans-serif;font-size:169.11px;">local</text>
                </g>
                <g transform="matrix(0.20348,0,0,0.289609,1421.99,1151.53)">
                    <g transform="matrix(169.11,0,0,169.11,2570.54,953.542)">
                    </g>
                    <text x="2363.86px" y="953.542px" style="font-family:'ArialMT', 'Arial', sans-serif;font-size:169.11px;">(2)</text>
                </g>
                <g transform="matrix(0.338156,0,0,0.481289,1072.21,1010.83)">
                    <text x="2363.86px" y="953.542px" style="font-family:'Arial-ItalicMT', 'Arial', sans-serif;font-style:italic;font-size:169.11px;">L</text>
                    <text x="2736.76px" y="953.542px" style="font-family:'AppleSymbols', 'Apple Symbols';font-size:169.11px;">⨉</text>
                    <g transform="matrix(169.11,0,0,169.11,4676.95,953.542)">
                    </g>
                    <text x="2896.38px" y="953.542px" style="font-family:'ArialMT', 'Arial', sans-serif;font-size:169.11px;">local transformer<tspan x="4150.63px " y="953.542px "> </tspan>blocks</text>
                </g>
            </g>
            <g id="global1" serif:id="global">
                <g transform="matrix(0.20348,0,0,0.289609,1420.1,1025.64)">
                    <g transform="matrix(169.11,0,0,169.11,2815.21,953.542)">
                    </g>
                    <text x="2363.86px" y="953.542px" style="font-family:'ArialMT', 'Arial', sans-serif;font-size:169.11px;">global</text>
                </g>
                <g transform="matrix(0.338156,0,0,0.481289,1070.64,829.586)">
                    <text x="2363.86px" y="953.542px" style="font-family:'Arial-ItalicMT', 'Arial', sans-serif;font-style:italic;font-size:169.11px;">L</text>
                    <text x="2736.76px" y="953.542px" style="font-family:'AppleSymbols', 'Apple Symbols';font-size:169.11px;">⨉</text>
                    <g transform="matrix(169.11,0,0,169.11,4780.5,953.542)">
                    </g>
                    <text x="2896.38px" y="953.542px" style="font-family:'ArialMT', 'Arial', sans-serif;font-size:169.11px;">global transformer<tspan x="4254.18px " y="953.542px "> </tspan>blocks</text>
                </g>
            </g>
            <g transform="matrix(0.338156,0,0,0.481289,1075.14,469.111)">
                <g transform="matrix(169.11,0,0,169.11,3445.08,953.542)">
                </g>
                <text x="2363.86px" y="953.542px" style="font-family:'ArialMT', 'Arial', sans-serif;font-size:169.11px;">de-embedding</text>
            </g>
        </g>
    </g>
</svg>
